<svg xmlns="http://www.w3.org/2000/svg" id="header_logo" width="88" height="24"><defs><style>.cls-1{fill:#226bef}</style></defs><g id="그룹_1" transform="translate(2676 2532)"><g id="그룹_70550" transform="translate(-2784.388 -2556.42)"><g id="그룹_69729" transform="translate(108.388 26.42)"><path id="패스_4074" d="M313.033 228.48a8.377 8.377 0 00-7.745 5.712c-.7 2.422-.483 4.486.632 5.968a5.866 5.866 0 004.866 2.125 7.768 7.768 0 006.161-2.8l.028-.034-2.574-2.058-.028.034a4.305 4.305 0 01-3.19 2.007 2.4 2.4 0 01-2.028-.994 2.232 2.232 0 01-.325-2.153h9.348l.135-.762a6.35 6.35 0 00-1.1-5.274 5.242 5.242 0 00-4.18-1.771zm2.012 5.538h-5.792a3.532 3.532 0 013.41-2.86 2.272 2.272 0 011.727.7 2.866 2.866 0 01.655 2.16z" class="cls-1" transform="translate(-245.706 -222.284)"/><path id="패스_4075" d="M360.087 230.245a5.244 5.244 0 00-4.18-1.765 8.378 8.378 0 00-7.745 5.712c-.7 2.422-.483 4.486.632 5.968a5.866 5.866 0 004.866 2.125 7.768 7.768 0 006.161-2.8l.028-.034-2.574-2.058-.028.034c-1.021 1.25-1.794 1.9-3.19 2.007h-.137a2.45 2.45 0 01-1.891-1 2.232 2.232 0 01-.325-2.153h9.348l.134-.762a6.353 6.353 0 00-1.099-5.274zm-2.169 3.772h-5.792a3.532 3.532 0 013.41-2.86 2.272 2.272 0 011.727.7 2.867 2.867 0 01.656 2.161z" class="cls-1" transform="translate(-273.783 -222.284)"/><path id="패스_4076" d="M179.882 228.524l-2.041 11.576h4.031l2.574-14.6h-1a3.768 3.768 0 00-3.564 3.024z" class="cls-1" transform="translate(-162.471 -220.36)"/><path id="패스_4077" d="M150.576 228.524l-2.041 11.576h4.031l2.574-14.6h-1a3.767 3.767 0 00-3.564 3.024z" class="cls-1" transform="translate(-143.172 -220.36)"/><path id="패스_4078" d="M189.2 209.706a2.509 2.509 0 00-2.371 2.015 1.645 1.645 0 001.66 2.016 2.509 2.509 0 002.371-2.016 1.645 1.645 0 00-1.66-2.015z" class="cls-1" transform="translate(-168.315 -209.706)"/><path id="패스_4079" d="M205.928 228.314l.5-2.816h-.856a3.952 3.952 0 00-3.734 3.174l-2.019 11.428h4.031l1.063-6.027c.392-2.226 1.779-3.075 3.815-3.413l.842-.14.75-4.256s-3.247.087-4.392 2.05z" class="cls-1" transform="translate(-176.875 -220.36)"/><path id="패스_4080" d="M263.108 228.672l-2.015 11.428h4.031l2.574-14.6h-.857a3.951 3.951 0 00-3.733 3.172z" class="cls-1" transform="translate(-216.926 -220.36)"/><path id="패스_4081" d="M285.217 228.672L283.2 240.1h4.031l2.574-14.6h-.857a3.951 3.951 0 00-3.731 3.172z" class="cls-1" transform="translate(-231.387 -220.36)"/><path id="패스_4082" d="M272.45 209.706a2.509 2.509 0 00-2.371 2.015 1.645 1.645 0 001.66 2.016 2.509 2.509 0 002.371-2.016 1.645 1.645 0 00-1.66-2.015z" class="cls-1" transform="translate(-222.749 -209.706)"/><path id="패스_4083" d="M235.617 228.314l.5-2.816h-.857a3.951 3.951 0 00-3.734 3.174l-2.018 11.428h4.031l1.062-6.027c.393-2.226 1.779-3.075 3.816-3.413l.842-.14.75-4.256s-3.247.087-4.392 2.05z" class="cls-1" transform="translate(-196.307 -220.36)"/><path id="패스_4084" d="M149.127 221.319c.7-2.7-1.39-5-4.662-5.148 0 0-2.384-.08-3.177-.14-3.884-.291-4.632-1.673-4.457-2.626s-3.887 2.979-.623 5.756a2.032 2.032 0 01-1.884-1.192 3 3 0 01-.418-1.537s-1.446 2.248.593 3.3c1.418.73 14.628 1.588 14.628 1.588z" class="cls-1" transform="translate(-133.407 -211.999)"/></g></g><path id="사각형_3197" fill="#fff" d="M0 0h88v24H0z" opacity=".1" transform="translate(-2676 -2532)"/></g></svg>