<svg xmlns="http://www.w3.org/2000/svg" id="CameraWh" width="48" height="48"><defs><style>.cls-2{fill:#fff;opacity:.189}</style></defs><g id="Camera"><g id="그룹_75614"><path id="패스_6260" d="M288 55l48 48" class="cls-2" transform="translate(-287.999 -55)"/><path id="패스_6261" d="M0 0l48 48" class="cls-2" transform="rotate(90 24 24)"/></g><g id="그룹_75617" transform="translate(5.804 5.804)"><path id="합치기_19" fill="#fff" stroke="rgba(0,0,0,0)" stroke-miterlimit="10" d="M7.639 36.392A7.661 7.661 0 010 28.751V13.673a7.661 7.661 0 017.639-7.641h.718L11.619 1.8A4.635 4.635 0 0115.283 0h5.828a4.63 4.63 0 013.662 1.8l3.262 4.23h.718a7.661 7.661 0 017.639 7.641v15.08a7.662 7.662 0 01-7.639 7.641zM3.217 13.673V28.75a4.431 4.431 0 004.423 4.418h21.119a4.428 4.428 0 004.423-4.422l-.005-15.073a4.43 4.43 0 00-4.423-4.424H7.639a4.43 4.43 0 00-4.422 4.424zm10.957-9.908l-1.752 2.267h11.552l-1.75-2.267a1.4 1.4 0 00-1.113-.546h-5.82a1.4 1.4 0 00-1.117.546zm-3.709 17.579a7.731 7.731 0 117.731 7.73 7.74 7.74 0 01-7.731-7.73zm3.235 0a4.5 4.5 0 104.5-4.5 4.5 4.5 0 00-4.5 4.5z"/></g></g></svg>